# xmcd
#
# Track frame offsets:
#	150
#	16680
#	30017
#	49617
#	68550
#	85155
#	101682
#	116752
#	128722
#	143072
#	157387
#	169900
#	183502
#	202920
#	220475
#	237865
#	250875
#	267587
#	283400
#	300320
#	312287
#	331697
#
# Disc length: 4658 seconds
#
# Revision: 0
# Processed by: cddbd v1.4b41PL3 Copyright (c) Steve Scherf et al.
# Submitted via: audiograbber 1.80
#
DISCID=33123016
DTITLE=Kenny Rogers - Collection
DYEAR=1900
DGENRE=
TTITLE0=Lucille
TTITLE1=Ruby Don't Take Your Love To Town
TTITLE2=Coward Of The County
TTITLE3=She Believes In Me
TTITLE4=Don't Fall In Love With A Dreamer ( Ft. Kim Carnes)
TTITLE5=You Decorated My Life
TTITLE6=Why Don't We Go Somewhere And Love
TTITLE7=My World Begins And Ends With You
TTITLE8=(Hey Won't You Play) Another Somebody Done Somebody Wrong Song (Ft. D. 
TTITLE8=West)
TTITLE9=Daytime Friends
TTITLE10=Reuben James
TTITLE11=Everytime Two Fools Collide ( Ft. Dottie West)
TTITLE12=Sweet Music Man
TTITLE13=Lady
TTITLE14=We've Got Tonight (Ft. Shenna Easton)
TTITLE15=We Love Each Other
TTITLE16=Love Lifted Me
TTITLE17=The Gambler
TTITLE18=Desperado
TTITLE19=Blaze Of Glory
TTITLE20=The Long Arm Of The Law
TTITLE21=Somethings Burning
EXTD=
EXTT0=
EXTT1=
EXTT2=
EXTT3=
EXTT4=
EXTT5=
EXTT6=
EXTT7=
EXTT8=
EXTT9=
EXTT10=
EXTT11=
EXTT12=
EXTT13=
EXTT14=
EXTT15=
EXTT16=
EXTT17=
EXTT18=
EXTT19=
EXTT20=
EXTT21=
PLAYORDER=
